<?xml version='1.0' encoding='iso-8859-1'?>
<!DOCTYPE svg PUBLIC '-//W3C//DTD SVG 1.1//EN' 'http://www.w3.org/Graphics/SVG/1.1/DTD/svg11.dtd'>
<!-- Uploaded to: SVG Repo, www.svgrepo.com, Generator: SVG Repo Mixer Tools -->
<svg fill="#474747" height="800px" width="800px" version="1.1" xmlns="http://www.w3.org/2000/svg" viewBox="0 0 512 512" xmlns:xlink="http://www.w3.org/1999/xlink" enable-background="new 0 0 512 512">
  <path d="M480,210.991c0-17.9-7.839-34.707-22.039-47.358C443.751,150.973,424.875,144,404.768,144  c-20.088,0-38.973,6.973-53.183,19.633L288,220.27v-24.062l60.372-67.793C361.046,114.205,368,95.32,368,75.223  c0-20.099-6.954-38.983-19.628-53.185C335.73,7.838,318.913,0,301.017,0C284.2,0,268.345,6.918,256.01,19.505  C243.663,6.908,227.8,0,210.992,0c-17.898,0-34.713,7.838-47.364,22.038C150.973,36.249,144,55.124,144,75.231  c0,20.089,6.973,38.974,19.628,53.184L224,196.192v24.064l-63.585-56.624C146.205,150.954,127.32,144,107.223,144  c-20.098,0-38.983,6.954-53.184,19.633C39.838,176.265,32,193.091,32,210.983c0,16.815,6.918,32.675,19.505,45.007  C38.908,268.341,32,284.2,32,301.008c0,17.9,7.838,34.708,22.039,47.359C68.249,361.026,87.125,368,107.231,368  c20.089,0,38.974-6.974,53.184-19.633L224,291.729v124.201c0,0.026-0.008,0.051-0.008,0.077c0,17.641-14.352,31.992-31.984,31.992  c-17.672,0-32,14.328-32,32s14.336,32,32.007,32C244.898,512,288,469.013,288,416.147c0-0.051,0-0.097,0-0.147V291.743  l63.585,56.624C365.795,361.046,384.68,368,404.777,368c20.098,0,38.983-6.954,53.184-19.633  c14.2-12.633,22.039-29.459,22.039-47.351c0-16.816-6.918-32.676-19.506-45.008C473.092,243.658,480,227.799,480,210.991z"/>
</svg>